<mxfile host="app.diagrams.net" modified="2022-04-03T16:29:49.873Z" agent="5.0 (Windows NT 6.1; Win64; x64) AppleWebKit/537.36 (KHTML, like Gecko) Chrome/100.0.4896.60 Safari/537.36" etag="b5Yz0ebcF47_3X0rn-VT" version="17.4.0" type="github">
  <diagram id="C5RBs43oDa-KdzZeNtuy" name="Page-1">
    <mxGraphModel dx="1240" dy="593" grid="1" gridSize="20" guides="1" tooltips="1" connect="1" arrows="1" fold="1" page="1" pageScale="1" pageWidth="827" pageHeight="1169" math="0" shadow="0">
      <root>
        <mxCell id="WIyWlLk6GJQsqaUBKTNV-0" />
        <mxCell id="WIyWlLk6GJQsqaUBKTNV-1" parent="WIyWlLk6GJQsqaUBKTNV-0" />
        <mxCell id="1RpnwZJN1rMyHzHDHrBu-5" value="" style="edgeStyle=orthogonalEdgeStyle;rounded=0;orthogonalLoop=1;jettySize=auto;html=1;" parent="WIyWlLk6GJQsqaUBKTNV-1" source="WIyWlLk6GJQsqaUBKTNV-3" edge="1">
          <mxGeometry relative="1" as="geometry">
            <mxPoint x="220" y="80" as="targetPoint" />
          </mxGeometry>
        </mxCell>
        <mxCell id="WIyWlLk6GJQsqaUBKTNV-3" value="&lt;font style=&quot;font-size: 12px&quot;&gt;начало&lt;/font&gt;" style="rounded=1;whiteSpace=wrap;html=1;fontSize=12;glass=0;strokeWidth=1;shadow=0;" parent="WIyWlLk6GJQsqaUBKTNV-1" vertex="1">
          <mxGeometry x="180" y="40" width="80" height="20" as="geometry" />
        </mxCell>
        <mxCell id="WG-GIoE7qXhuWjVk6lCx-4" value="" style="edgeStyle=orthogonalEdgeStyle;rounded=0;orthogonalLoop=1;jettySize=auto;html=1;fontSize=12;exitX=0.493;exitY=0.725;exitDx=0;exitDy=0;exitPerimeter=0;" parent="WIyWlLk6GJQsqaUBKTNV-1" source="WG-GIoE7qXhuWjVk6lCx-2" target="WG-GIoE7qXhuWjVk6lCx-3" edge="1">
          <mxGeometry relative="1" as="geometry" />
        </mxCell>
        <mxCell id="WG-GIoE7qXhuWjVk6lCx-2" value="&quot;enter text&quot;" style="shape=document;whiteSpace=wrap;html=1;boundedLbl=1;fontSize=12;size=0.5;" parent="WIyWlLk6GJQsqaUBKTNV-1" vertex="1">
          <mxGeometry x="182.5" y="80" width="75" height="40" as="geometry" />
        </mxCell>
        <mxCell id="WG-GIoE7qXhuWjVk6lCx-6" value="" style="edgeStyle=orthogonalEdgeStyle;rounded=0;orthogonalLoop=1;jettySize=auto;html=1;fontSize=12;" parent="WIyWlLk6GJQsqaUBKTNV-1" source="WG-GIoE7qXhuWjVk6lCx-3" target="WG-GIoE7qXhuWjVk6lCx-5" edge="1">
          <mxGeometry relative="1" as="geometry" />
        </mxCell>
        <mxCell id="WG-GIoE7qXhuWjVk6lCx-3" value="in" style="shape=parallelogram;perimeter=parallelogramPerimeter;whiteSpace=wrap;html=1;fixedSize=1;" parent="WIyWlLk6GJQsqaUBKTNV-1" vertex="1">
          <mxGeometry x="190" y="140" width="60" height="20" as="geometry" />
        </mxCell>
        <mxCell id="WG-GIoE7qXhuWjVk6lCx-8" value="" style="edgeStyle=orthogonalEdgeStyle;rounded=0;orthogonalLoop=1;jettySize=auto;html=1;fontSize=12;" parent="WIyWlLk6GJQsqaUBKTNV-1" source="WG-GIoE7qXhuWjVk6lCx-5" target="WG-GIoE7qXhuWjVk6lCx-7" edge="1">
          <mxGeometry relative="1" as="geometry" />
        </mxCell>
        <mxCell id="WG-GIoE7qXhuWjVk6lCx-5" value="splitstring(in, strings)" style="whiteSpace=wrap;html=1;" parent="WIyWlLk6GJQsqaUBKTNV-1" vertex="1">
          <mxGeometry x="160" y="180" width="120" height="40" as="geometry" />
        </mxCell>
        <mxCell id="WG-GIoE7qXhuWjVk6lCx-10" value="" style="edgeStyle=orthogonalEdgeStyle;rounded=0;orthogonalLoop=1;jettySize=auto;html=1;fontSize=12;" parent="WIyWlLk6GJQsqaUBKTNV-1" source="WG-GIoE7qXhuWjVk6lCx-7" target="WG-GIoE7qXhuWjVk6lCx-9" edge="1">
          <mxGeometry relative="1" as="geometry" />
        </mxCell>
        <mxCell id="WG-GIoE7qXhuWjVk6lCx-7" value="fsort(strings)" style="whiteSpace=wrap;html=1;" parent="WIyWlLk6GJQsqaUBKTNV-1" vertex="1">
          <mxGeometry x="160" y="240" width="120" height="40" as="geometry" />
        </mxCell>
        <mxCell id="WG-GIoE7qXhuWjVk6lCx-12" value="" style="edgeStyle=orthogonalEdgeStyle;rounded=0;orthogonalLoop=1;jettySize=auto;html=1;fontSize=12;" parent="WIyWlLk6GJQsqaUBKTNV-1" source="WG-GIoE7qXhuWjVk6lCx-9" target="WG-GIoE7qXhuWjVk6lCx-11" edge="1">
          <mxGeometry relative="1" as="geometry" />
        </mxCell>
        <mxCell id="WG-GIoE7qXhuWjVk6lCx-9" value="count = 1" style="whiteSpace=wrap;html=1;" parent="WIyWlLk6GJQsqaUBKTNV-1" vertex="1">
          <mxGeometry x="175" y="300" width="90" height="20" as="geometry" />
        </mxCell>
        <mxCell id="WG-GIoE7qXhuWjVk6lCx-14" value="" style="edgeStyle=orthogonalEdgeStyle;rounded=0;orthogonalLoop=1;jettySize=auto;html=1;fontSize=12;" parent="WIyWlLk6GJQsqaUBKTNV-1" source="WG-GIoE7qXhuWjVk6lCx-11" target="WG-GIoE7qXhuWjVk6lCx-13" edge="1">
          <mxGeometry relative="1" as="geometry" />
        </mxCell>
        <mxCell id="WG-GIoE7qXhuWjVk6lCx-11" value="i = 0" style="whiteSpace=wrap;html=1;" parent="WIyWlLk6GJQsqaUBKTNV-1" vertex="1">
          <mxGeometry x="175" y="360" width="90" height="20" as="geometry" />
        </mxCell>
        <mxCell id="WG-GIoE7qXhuWjVk6lCx-16" value="" style="edgeStyle=orthogonalEdgeStyle;rounded=0;orthogonalLoop=1;jettySize=auto;html=1;fontSize=12;" parent="WIyWlLk6GJQsqaUBKTNV-1" source="WG-GIoE7qXhuWjVk6lCx-13" target="WG-GIoE7qXhuWjVk6lCx-15" edge="1">
          <mxGeometry relative="1" as="geometry" />
        </mxCell>
        <mxCell id="WG-GIoE7qXhuWjVk6lCx-29" style="edgeStyle=orthogonalEdgeStyle;rounded=0;orthogonalLoop=1;jettySize=auto;html=1;fontSize=12;" parent="WIyWlLk6GJQsqaUBKTNV-1" source="WG-GIoE7qXhuWjVk6lCx-13" edge="1">
          <mxGeometry relative="1" as="geometry">
            <mxPoint x="220" y="680" as="targetPoint" />
            <Array as="points">
              <mxPoint x="360" y="440" />
              <mxPoint x="360" y="660" />
              <mxPoint x="220" y="660" />
            </Array>
          </mxGeometry>
        </mxCell>
        <mxCell id="WG-GIoE7qXhuWjVk6lCx-13" value="i &amp;lt; strings.size" style="rhombus;whiteSpace=wrap;html=1;" parent="WIyWlLk6GJQsqaUBKTNV-1" vertex="1">
          <mxGeometry x="170" y="420" width="100" height="40" as="geometry" />
        </mxCell>
        <mxCell id="WG-GIoE7qXhuWjVk6lCx-20" style="edgeStyle=orthogonalEdgeStyle;rounded=0;orthogonalLoop=1;jettySize=auto;html=1;fontSize=12;" parent="WIyWlLk6GJQsqaUBKTNV-1" source="WG-GIoE7qXhuWjVk6lCx-15" edge="1">
          <mxGeometry relative="1" as="geometry">
            <mxPoint x="120" y="540" as="targetPoint" />
            <Array as="points">
              <mxPoint x="120" y="510" />
            </Array>
          </mxGeometry>
        </mxCell>
        <mxCell id="WG-GIoE7qXhuWjVk6lCx-23" style="edgeStyle=orthogonalEdgeStyle;rounded=0;orthogonalLoop=1;jettySize=auto;html=1;fontSize=12;" parent="WIyWlLk6GJQsqaUBKTNV-1" source="WG-GIoE7qXhuWjVk6lCx-15" edge="1">
          <mxGeometry relative="1" as="geometry">
            <mxPoint x="320" y="540" as="targetPoint" />
            <Array as="points">
              <mxPoint x="320" y="510" />
              <mxPoint x="320" y="540" />
            </Array>
          </mxGeometry>
        </mxCell>
        <mxCell id="WG-GIoE7qXhuWjVk6lCx-15" value="strings[i] == strings[i+1]" style="rhombus;whiteSpace=wrap;html=1;" parent="WIyWlLk6GJQsqaUBKTNV-1" vertex="1">
          <mxGeometry x="147.5" y="480" width="145" height="60" as="geometry" />
        </mxCell>
        <mxCell id="WG-GIoE7qXhuWjVk6lCx-36" style="edgeStyle=orthogonalEdgeStyle;rounded=0;orthogonalLoop=1;jettySize=auto;html=1;fontSize=12;" parent="WIyWlLk6GJQsqaUBKTNV-1" source="WG-GIoE7qXhuWjVk6lCx-19" edge="1">
          <mxGeometry relative="1" as="geometry">
            <mxPoint x="220" y="620" as="targetPoint" />
            <Array as="points">
              <mxPoint x="134" y="600" />
              <mxPoint x="220" y="600" />
            </Array>
          </mxGeometry>
        </mxCell>
        <mxCell id="WG-GIoE7qXhuWjVk6lCx-19" value="count = count&amp;nbsp;+1&amp;nbsp;" style="whiteSpace=wrap;html=1;" parent="WIyWlLk6GJQsqaUBKTNV-1" vertex="1">
          <mxGeometry x="110.5" y="540" width="52.5" height="40" as="geometry" />
        </mxCell>
        <mxCell id="WG-GIoE7qXhuWjVk6lCx-21" value="да" style="text;html=1;align=center;verticalAlign=middle;resizable=0;points=[];autosize=1;strokeColor=none;fillColor=none;fontSize=12;" parent="WIyWlLk6GJQsqaUBKTNV-1" vertex="1">
          <mxGeometry x="120" y="490" width="40" height="20" as="geometry" />
        </mxCell>
        <mxCell id="WG-GIoE7qXhuWjVk6lCx-22" value="да" style="text;html=1;align=center;verticalAlign=middle;resizable=0;points=[];autosize=1;strokeColor=none;fillColor=none;fontSize=12;" parent="WIyWlLk6GJQsqaUBKTNV-1" vertex="1">
          <mxGeometry x="217.5" y="460" width="40" height="20" as="geometry" />
        </mxCell>
        <mxCell id="WG-GIoE7qXhuWjVk6lCx-24" value="нет" style="text;html=1;align=center;verticalAlign=middle;resizable=0;points=[];autosize=1;strokeColor=none;fillColor=none;fontSize=12;" parent="WIyWlLk6GJQsqaUBKTNV-1" vertex="1">
          <mxGeometry x="280" y="490" width="40" height="20" as="geometry" />
        </mxCell>
        <mxCell id="WG-GIoE7qXhuWjVk6lCx-25" value="нет" style="text;html=1;align=center;verticalAlign=middle;resizable=0;points=[];autosize=1;strokeColor=none;fillColor=none;fontSize=12;" parent="WIyWlLk6GJQsqaUBKTNV-1" vertex="1">
          <mxGeometry x="265" y="420" width="40" height="20" as="geometry" />
        </mxCell>
        <mxCell id="WG-GIoE7qXhuWjVk6lCx-33" value="" style="edgeStyle=orthogonalEdgeStyle;rounded=0;orthogonalLoop=1;jettySize=auto;html=1;fontSize=12;exitX=0.5;exitY=0.5;exitDx=0;exitDy=0;exitPerimeter=0;entryX=0.5;entryY=0;entryDx=0;entryDy=0;" parent="WIyWlLk6GJQsqaUBKTNV-1" source="WG-GIoE7qXhuWjVk6lCx-26" target="WG-GIoE7qXhuWjVk6lCx-31" edge="1">
          <mxGeometry relative="1" as="geometry">
            <mxPoint x="308.75" y="665" as="targetPoint" />
          </mxGeometry>
        </mxCell>
        <mxCell id="WG-GIoE7qXhuWjVk6lCx-26" value="strings[i], count" style="shape=document;whiteSpace=wrap;html=1;boundedLbl=1;fontSize=12;" parent="WIyWlLk6GJQsqaUBKTNV-1" vertex="1">
          <mxGeometry x="280" y="540" width="57.5" height="45" as="geometry" />
        </mxCell>
        <mxCell id="WG-GIoE7qXhuWjVk6lCx-30" value="конец" style="rounded=1;whiteSpace=wrap;html=1;fontSize=12;" parent="WIyWlLk6GJQsqaUBKTNV-1" vertex="1">
          <mxGeometry x="190" y="680" width="60" height="20" as="geometry" />
        </mxCell>
        <mxCell id="WG-GIoE7qXhuWjVk6lCx-37" style="edgeStyle=orthogonalEdgeStyle;rounded=0;orthogonalLoop=1;jettySize=auto;html=1;fontSize=12;" parent="WIyWlLk6GJQsqaUBKTNV-1" source="WG-GIoE7qXhuWjVk6lCx-31" edge="1">
          <mxGeometry relative="1" as="geometry">
            <mxPoint x="220" y="620" as="targetPoint" />
            <Array as="points">
              <mxPoint x="220" y="600" />
            </Array>
          </mxGeometry>
        </mxCell>
        <mxCell id="WG-GIoE7qXhuWjVk6lCx-31" value="count =1&amp;nbsp;" style="whiteSpace=wrap;html=1;" parent="WIyWlLk6GJQsqaUBKTNV-1" vertex="1">
          <mxGeometry x="274.38" y="593" width="68.75" height="20" as="geometry" />
        </mxCell>
        <mxCell id="WG-GIoE7qXhuWjVk6lCx-39" style="edgeStyle=orthogonalEdgeStyle;rounded=0;orthogonalLoop=1;jettySize=auto;html=1;fontSize=12;" parent="WIyWlLk6GJQsqaUBKTNV-1" source="WG-GIoE7qXhuWjVk6lCx-38" edge="1">
          <mxGeometry relative="1" as="geometry">
            <mxPoint x="220" y="420" as="targetPoint" />
            <Array as="points">
              <mxPoint x="220" y="640" />
              <mxPoint x="100" y="640" />
              <mxPoint x="100" y="400" />
              <mxPoint x="220" y="400" />
            </Array>
          </mxGeometry>
        </mxCell>
        <mxCell id="WG-GIoE7qXhuWjVk6lCx-38" value="i = i+1" style="whiteSpace=wrap;html=1;fontSize=12;" parent="WIyWlLk6GJQsqaUBKTNV-1" vertex="1">
          <mxGeometry x="191.41" y="620" width="57.19" height="13" as="geometry" />
        </mxCell>
        <mxCell id="WG-GIoE7qXhuWjVk6lCx-46" value="" style="edgeStyle=orthogonalEdgeStyle;rounded=0;orthogonalLoop=1;jettySize=auto;html=1;fontSize=12;" parent="WIyWlLk6GJQsqaUBKTNV-1" source="WG-GIoE7qXhuWjVk6lCx-40" target="WG-GIoE7qXhuWjVk6lCx-45" edge="1">
          <mxGeometry relative="1" as="geometry" />
        </mxCell>
        <mxCell id="WG-GIoE7qXhuWjVk6lCx-40" value="&lt;font style=&quot;font-size: 12px&quot;&gt;начало функции splitstring&lt;/font&gt;" style="rounded=1;whiteSpace=wrap;html=1;fontSize=12;glass=0;strokeWidth=1;shadow=0;" parent="WIyWlLk6GJQsqaUBKTNV-1" vertex="1">
          <mxGeometry x="609.8800000000001" width="100.06" height="40" as="geometry" />
        </mxCell>
        <mxCell id="WG-GIoE7qXhuWjVk6lCx-48" value="" style="edgeStyle=orthogonalEdgeStyle;rounded=0;orthogonalLoop=1;jettySize=auto;html=1;fontSize=12;" parent="WIyWlLk6GJQsqaUBKTNV-1" source="WG-GIoE7qXhuWjVk6lCx-45" target="WG-GIoE7qXhuWjVk6lCx-47" edge="1">
          <mxGeometry relative="1" as="geometry" />
        </mxCell>
        <mxCell id="WG-GIoE7qXhuWjVk6lCx-45" value="i = 0" style="whiteSpace=wrap;html=1;" parent="WIyWlLk6GJQsqaUBKTNV-1" vertex="1">
          <mxGeometry x="614.94" y="60" width="90" height="20" as="geometry" />
        </mxCell>
        <mxCell id="WG-GIoE7qXhuWjVk6lCx-50" value="" style="edgeStyle=orthogonalEdgeStyle;rounded=0;orthogonalLoop=1;jettySize=auto;html=1;fontSize=12;entryX=0.5;entryY=0;entryDx=0;entryDy=0;" parent="WIyWlLk6GJQsqaUBKTNV-1" source="WG-GIoE7qXhuWjVk6lCx-47" target="WG-GIoE7qXhuWjVk6lCx-51" edge="1">
          <mxGeometry relative="1" as="geometry">
            <mxPoint x="659.94" y="240" as="targetPoint" />
          </mxGeometry>
        </mxCell>
        <mxCell id="WG-GIoE7qXhuWjVk6lCx-52" style="edgeStyle=orthogonalEdgeStyle;rounded=0;orthogonalLoop=1;jettySize=auto;html=1;fontSize=12;entryX=0.5;entryY=0;entryDx=0;entryDy=0;" parent="WIyWlLk6GJQsqaUBKTNV-1" source="WG-GIoE7qXhuWjVk6lCx-47" target="WG-GIoE7qXhuWjVk6lCx-53" edge="1">
          <mxGeometry relative="1" as="geometry">
            <mxPoint x="659.94" y="440" as="targetPoint" />
            <Array as="points">
              <mxPoint x="799.94" y="140" />
              <mxPoint x="799.94" y="500" />
              <mxPoint x="659.94" y="500" />
            </Array>
          </mxGeometry>
        </mxCell>
        <mxCell id="WG-GIoE7qXhuWjVk6lCx-47" value="i &amp;lt; numb.size ()" style="rhombus;whiteSpace=wrap;html=1;" parent="WIyWlLk6GJQsqaUBKTNV-1" vertex="1">
          <mxGeometry x="599.94" y="120" width="120" height="40" as="geometry" />
        </mxCell>
        <mxCell id="WG-GIoE7qXhuWjVk6lCx-55" value="" style="edgeStyle=orthogonalEdgeStyle;rounded=0;orthogonalLoop=1;jettySize=auto;html=1;fontSize=12;" parent="WIyWlLk6GJQsqaUBKTNV-1" source="WG-GIoE7qXhuWjVk6lCx-51" target="WG-GIoE7qXhuWjVk6lCx-54" edge="1">
          <mxGeometry relative="1" as="geometry" />
        </mxCell>
        <mxCell id="WG-GIoE7qXhuWjVk6lCx-51" value="j = 0" style="whiteSpace=wrap;html=1;" parent="WIyWlLk6GJQsqaUBKTNV-1" vertex="1">
          <mxGeometry x="614.94" y="190" width="90" height="20" as="geometry" />
        </mxCell>
        <mxCell id="WG-GIoE7qXhuWjVk6lCx-53" value="возврат в программу&amp;nbsp;" style="rounded=1;whiteSpace=wrap;html=1;fontSize=12;" parent="WIyWlLk6GJQsqaUBKTNV-1" vertex="1">
          <mxGeometry x="609.94" y="520" width="100" height="40" as="geometry" />
        </mxCell>
        <mxCell id="WG-GIoE7qXhuWjVk6lCx-57" value="" style="edgeStyle=orthogonalEdgeStyle;rounded=0;orthogonalLoop=1;jettySize=auto;html=1;fontSize=12;" parent="WIyWlLk6GJQsqaUBKTNV-1" source="WG-GIoE7qXhuWjVk6lCx-54" target="WG-GIoE7qXhuWjVk6lCx-56" edge="1">
          <mxGeometry relative="1" as="geometry" />
        </mxCell>
        <mxCell id="WG-GIoE7qXhuWjVk6lCx-72" style="edgeStyle=orthogonalEdgeStyle;rounded=0;orthogonalLoop=1;jettySize=auto;html=1;exitX=1;exitY=0.5;exitDx=0;exitDy=0;fontSize=12;entryX=0.5;entryY=0;entryDx=0;entryDy=0;startArrow=none;" parent="WIyWlLk6GJQsqaUBKTNV-1" source="WG-GIoE7qXhuWjVk6lCx-73" target="WG-GIoE7qXhuWjVk6lCx-47" edge="1">
          <mxGeometry relative="1" as="geometry">
            <mxPoint x="559.94" y="180" as="targetPoint" />
            <Array as="points">
              <mxPoint x="539.94" y="100" />
              <mxPoint x="659.94" y="100" />
            </Array>
          </mxGeometry>
        </mxCell>
        <mxCell id="WG-GIoE7qXhuWjVk6lCx-76" style="edgeStyle=orthogonalEdgeStyle;rounded=0;orthogonalLoop=1;jettySize=auto;html=1;exitX=1;exitY=0.5;exitDx=0;exitDy=0;fontSize=12;" parent="WIyWlLk6GJQsqaUBKTNV-1" source="WG-GIoE7qXhuWjVk6lCx-54" target="WG-GIoE7qXhuWjVk6lCx-73" edge="1">
          <mxGeometry relative="1" as="geometry">
            <mxPoint x="779.94" y="480" as="targetPoint" />
            <Array as="points">
              <mxPoint x="779.94" y="257" />
              <mxPoint x="779.94" y="479" />
            </Array>
          </mxGeometry>
        </mxCell>
        <mxCell id="WG-GIoE7qXhuWjVk6lCx-54" value="j &amp;lt; numb.size() - i - 1" style="rhombus;whiteSpace=wrap;html=1;" parent="WIyWlLk6GJQsqaUBKTNV-1" vertex="1">
          <mxGeometry x="589.94" y="234" width="140" height="46" as="geometry" />
        </mxCell>
        <mxCell id="WG-GIoE7qXhuWjVk6lCx-59" value="" style="edgeStyle=orthogonalEdgeStyle;rounded=0;orthogonalLoop=1;jettySize=auto;html=1;fontSize=12;" parent="WIyWlLk6GJQsqaUBKTNV-1" source="WG-GIoE7qXhuWjVk6lCx-56" edge="1">
          <mxGeometry relative="1" as="geometry">
            <mxPoint x="659.94" y="360" as="targetPoint" />
          </mxGeometry>
        </mxCell>
        <mxCell id="WG-GIoE7qXhuWjVk6lCx-62" style="edgeStyle=orthogonalEdgeStyle;rounded=0;orthogonalLoop=1;jettySize=auto;html=1;fontSize=12;" parent="WIyWlLk6GJQsqaUBKTNV-1" source="WG-GIoE7qXhuWjVk6lCx-56" edge="1">
          <mxGeometry relative="1" as="geometry">
            <mxPoint x="659.94" y="440" as="targetPoint" />
            <Array as="points">
              <mxPoint x="759.94" y="323" />
              <mxPoint x="759.94" y="420" />
              <mxPoint x="659.94" y="420" />
            </Array>
          </mxGeometry>
        </mxCell>
        <mxCell id="WG-GIoE7qXhuWjVk6lCx-56" value="numb[j] &amp;lt; numb[j+1]" style="rhombus;whiteSpace=wrap;html=1;" parent="WIyWlLk6GJQsqaUBKTNV-1" vertex="1">
          <mxGeometry x="589.94" y="300" width="140" height="46" as="geometry" />
        </mxCell>
        <mxCell id="WG-GIoE7qXhuWjVk6lCx-61" value="" style="edgeStyle=orthogonalEdgeStyle;rounded=0;orthogonalLoop=1;jettySize=auto;html=1;fontSize=12;" parent="WIyWlLk6GJQsqaUBKTNV-1" source="WG-GIoE7qXhuWjVk6lCx-60" edge="1">
          <mxGeometry relative="1" as="geometry">
            <mxPoint x="659.94" y="440" as="targetPoint" />
          </mxGeometry>
        </mxCell>
        <mxCell id="WG-GIoE7qXhuWjVk6lCx-60" value="swap(numb[j+1], numb[j])" style="rounded=0;whiteSpace=wrap;html=1;fontSize=12;" parent="WIyWlLk6GJQsqaUBKTNV-1" vertex="1">
          <mxGeometry x="589.94" y="360" width="140" height="40" as="geometry" />
        </mxCell>
        <mxCell id="WG-GIoE7qXhuWjVk6lCx-64" value="нет" style="text;html=1;align=center;verticalAlign=middle;resizable=0;points=[];autosize=1;strokeColor=none;fillColor=none;fontSize=12;" parent="WIyWlLk6GJQsqaUBKTNV-1" vertex="1">
          <mxGeometry x="721.94" y="303" width="40" height="20" as="geometry" />
        </mxCell>
        <mxCell id="WG-GIoE7qXhuWjVk6lCx-65" value="нет" style="text;html=1;align=center;verticalAlign=middle;resizable=0;points=[];autosize=1;strokeColor=none;fillColor=none;fontSize=12;" parent="WIyWlLk6GJQsqaUBKTNV-1" vertex="1">
          <mxGeometry x="729.94" y="234" width="40" height="20" as="geometry" />
        </mxCell>
        <mxCell id="WG-GIoE7qXhuWjVk6lCx-66" value="нет" style="text;html=1;align=center;verticalAlign=middle;resizable=0;points=[];autosize=1;strokeColor=none;fillColor=none;fontSize=12;" parent="WIyWlLk6GJQsqaUBKTNV-1" vertex="1">
          <mxGeometry x="719.94" y="120" width="40" height="20" as="geometry" />
        </mxCell>
        <mxCell id="WG-GIoE7qXhuWjVk6lCx-67" value="да" style="text;html=1;align=center;verticalAlign=middle;resizable=0;points=[];autosize=1;strokeColor=none;fillColor=none;fontSize=12;" parent="WIyWlLk6GJQsqaUBKTNV-1" vertex="1">
          <mxGeometry x="614.94" y="340" width="40" height="20" as="geometry" />
        </mxCell>
        <mxCell id="WG-GIoE7qXhuWjVk6lCx-68" value="да" style="text;html=1;align=center;verticalAlign=middle;resizable=0;points=[];autosize=1;strokeColor=none;fillColor=none;fontSize=12;" parent="WIyWlLk6GJQsqaUBKTNV-1" vertex="1">
          <mxGeometry x="614.94" y="283" width="40" height="20" as="geometry" />
        </mxCell>
        <mxCell id="WG-GIoE7qXhuWjVk6lCx-69" value="да" style="text;html=1;align=center;verticalAlign=middle;resizable=0;points=[];autosize=1;strokeColor=none;fillColor=none;fontSize=12;" parent="WIyWlLk6GJQsqaUBKTNV-1" vertex="1">
          <mxGeometry x="629.94" y="160" width="40" height="20" as="geometry" />
        </mxCell>
        <mxCell id="WG-GIoE7qXhuWjVk6lCx-71" style="edgeStyle=orthogonalEdgeStyle;rounded=0;orthogonalLoop=1;jettySize=auto;html=1;fontSize=12;entryX=0.5;entryY=0;entryDx=0;entryDy=0;" parent="WIyWlLk6GJQsqaUBKTNV-1" target="WG-GIoE7qXhuWjVk6lCx-54" edge="1">
          <mxGeometry relative="1" as="geometry">
            <mxPoint x="559.94" y="307" as="targetPoint" />
            <mxPoint x="659.94" y="447" as="sourcePoint" />
            <Array as="points">
              <mxPoint x="659.94" y="467" />
              <mxPoint x="559.94" y="467" />
              <mxPoint x="559.94" y="220" />
              <mxPoint x="659.94" y="220" />
            </Array>
          </mxGeometry>
        </mxCell>
        <mxCell id="WG-GIoE7qXhuWjVk6lCx-70" value="++j" style="rounded=0;whiteSpace=wrap;html=1;fontSize=12;" parent="WIyWlLk6GJQsqaUBKTNV-1" vertex="1">
          <mxGeometry x="629.94" y="440" width="60" height="20" as="geometry" />
        </mxCell>
        <mxCell id="WG-GIoE7qXhuWjVk6lCx-73" value="++i" style="rounded=0;whiteSpace=wrap;html=1;fontSize=12;" parent="WIyWlLk6GJQsqaUBKTNV-1" vertex="1">
          <mxGeometry x="716.94" y="460" width="50" height="30" as="geometry" />
        </mxCell>
        <mxCell id="WG-GIoE7qXhuWjVk6lCx-77" value="sorting function &amp;gt;&amp;gt;" style="text;html=1;align=center;verticalAlign=middle;resizable=0;points=[];autosize=1;strokeColor=none;fillColor=none;fontSize=12;" parent="WIyWlLk6GJQsqaUBKTNV-1" vertex="1">
          <mxGeometry x="439.94" y="40" width="120" height="20" as="geometry" />
        </mxCell>
        <mxCell id="WG-GIoE7qXhuWjVk6lCx-78" value="&amp;lt;&amp;lt; main function&amp;nbsp;" style="text;html=1;align=center;verticalAlign=middle;resizable=0;points=[];autosize=1;strokeColor=none;fillColor=none;fontSize=12;" parent="WIyWlLk6GJQsqaUBKTNV-1" vertex="1">
          <mxGeometry x="257.5" y="10" width="120" height="20" as="geometry" />
        </mxCell>
        <mxCell id="WG-GIoE7qXhuWjVk6lCx-83" value="" style="edgeStyle=orthogonalEdgeStyle;rounded=0;orthogonalLoop=1;jettySize=auto;html=1;fontSize=12;" parent="WIyWlLk6GJQsqaUBKTNV-1" source="WG-GIoE7qXhuWjVk6lCx-79" target="WG-GIoE7qXhuWjVk6lCx-82" edge="1">
          <mxGeometry relative="1" as="geometry" />
        </mxCell>
        <mxCell id="WG-GIoE7qXhuWjVk6lCx-79" value="&lt;font style=&quot;font-size: 12px&quot;&gt;начало функции&lt;br&gt;fsort&lt;br&gt;&lt;/font&gt;" style="rounded=1;whiteSpace=wrap;html=1;fontSize=12;glass=0;strokeWidth=1;shadow=0;" parent="WIyWlLk6GJQsqaUBKTNV-1" vertex="1">
          <mxGeometry x="604.92" y="580" width="120" height="33" as="geometry" />
        </mxCell>
        <mxCell id="WG-GIoE7qXhuWjVk6lCx-85" value="" style="edgeStyle=orthogonalEdgeStyle;rounded=0;orthogonalLoop=1;jettySize=auto;html=1;fontSize=12;" parent="WIyWlLk6GJQsqaUBKTNV-1" source="WG-GIoE7qXhuWjVk6lCx-82" target="WG-GIoE7qXhuWjVk6lCx-84" edge="1">
          <mxGeometry relative="1" as="geometry" />
        </mxCell>
        <mxCell id="WG-GIoE7qXhuWjVk6lCx-82" value="temp = &quot;&quot;" style="rounded=0;whiteSpace=wrap;html=1;fontSize=12;" parent="WIyWlLk6GJQsqaUBKTNV-1" vertex="1">
          <mxGeometry x="627.45" y="633" width="74.94" height="20" as="geometry" />
        </mxCell>
        <mxCell id="WG-GIoE7qXhuWjVk6lCx-87" value="" style="edgeStyle=orthogonalEdgeStyle;rounded=0;orthogonalLoop=1;jettySize=auto;html=1;fontSize=12;" parent="WIyWlLk6GJQsqaUBKTNV-1" source="WG-GIoE7qXhuWjVk6lCx-84" target="WG-GIoE7qXhuWjVk6lCx-86" edge="1">
          <mxGeometry relative="1" as="geometry" />
        </mxCell>
        <mxCell id="WG-GIoE7qXhuWjVk6lCx-84" value="i = 0" style="rounded=0;whiteSpace=wrap;html=1;fontSize=12;" parent="WIyWlLk6GJQsqaUBKTNV-1" vertex="1">
          <mxGeometry x="627.45" y="673" width="74.94" height="20" as="geometry" />
        </mxCell>
        <mxCell id="WG-GIoE7qXhuWjVk6lCx-101" value="" style="edgeStyle=orthogonalEdgeStyle;rounded=0;orthogonalLoop=1;jettySize=auto;html=1;fontSize=12;entryX=0.5;entryY=0;entryDx=0;entryDy=0;" parent="WIyWlLk6GJQsqaUBKTNV-1" source="WG-GIoE7qXhuWjVk6lCx-86" target="WG-GIoE7qXhuWjVk6lCx-88" edge="1">
          <mxGeometry relative="1" as="geometry" />
        </mxCell>
        <mxCell id="WG-GIoE7qXhuWjVk6lCx-106" style="edgeStyle=orthogonalEdgeStyle;rounded=0;orthogonalLoop=1;jettySize=auto;html=1;fontSize=12;" parent="WIyWlLk6GJQsqaUBKTNV-1" source="WG-GIoE7qXhuWjVk6lCx-86" edge="1">
          <mxGeometry relative="1" as="geometry">
            <mxPoint x="664.98" y="1013" as="targetPoint" />
            <Array as="points">
              <mxPoint x="789.98" y="760" />
              <mxPoint x="789.98" y="993" />
              <mxPoint x="664.98" y="993" />
            </Array>
          </mxGeometry>
        </mxCell>
        <mxCell id="WG-GIoE7qXhuWjVk6lCx-86" value="i &amp;lt; s.length()" style="rhombus;whiteSpace=wrap;html=1;rounded=0;" parent="WIyWlLk6GJQsqaUBKTNV-1" vertex="1">
          <mxGeometry x="602.39" y="730" width="125.06" height="60" as="geometry" />
        </mxCell>
        <mxCell id="WG-GIoE7qXhuWjVk6lCx-91" style="edgeStyle=orthogonalEdgeStyle;rounded=0;orthogonalLoop=1;jettySize=auto;html=1;fontSize=12;" parent="WIyWlLk6GJQsqaUBKTNV-1" source="WG-GIoE7qXhuWjVk6lCx-88" edge="1">
          <mxGeometry relative="1" as="geometry">
            <mxPoint x="589.98" y="873" as="targetPoint" />
            <Array as="points">
              <mxPoint x="589.98" y="833" />
              <mxPoint x="589.98" y="873" />
            </Array>
          </mxGeometry>
        </mxCell>
        <mxCell id="WG-GIoE7qXhuWjVk6lCx-94" style="edgeStyle=orthogonalEdgeStyle;rounded=0;orthogonalLoop=1;jettySize=auto;html=1;entryX=0.709;entryY=0;entryDx=0;entryDy=0;entryPerimeter=0;fontSize=12;" parent="WIyWlLk6GJQsqaUBKTNV-1" source="WG-GIoE7qXhuWjVk6lCx-88" target="WG-GIoE7qXhuWjVk6lCx-93" edge="1">
          <mxGeometry relative="1" as="geometry">
            <Array as="points">
              <mxPoint x="749.98" y="833" />
            </Array>
          </mxGeometry>
        </mxCell>
        <mxCell id="WG-GIoE7qXhuWjVk6lCx-88" value="s[i] == &#39; &#39;&amp;nbsp;" style="rhombus;whiteSpace=wrap;html=1;rounded=0;" parent="WIyWlLk6GJQsqaUBKTNV-1" vertex="1">
          <mxGeometry x="602.39" y="813" width="125.06" height="40" as="geometry" />
        </mxCell>
        <mxCell id="WG-GIoE7qXhuWjVk6lCx-96" value="" style="edgeStyle=orthogonalEdgeStyle;rounded=0;orthogonalLoop=1;jettySize=auto;html=1;fontSize=12;" parent="WIyWlLk6GJQsqaUBKTNV-1" source="WG-GIoE7qXhuWjVk6lCx-92" target="WG-GIoE7qXhuWjVk6lCx-95" edge="1">
          <mxGeometry relative="1" as="geometry" />
        </mxCell>
        <mxCell id="WG-GIoE7qXhuWjVk6lCx-92" value="v.push_back(temp)" style="rounded=0;whiteSpace=wrap;html=1;fontSize=12;" parent="WIyWlLk6GJQsqaUBKTNV-1" vertex="1">
          <mxGeometry x="529.98" y="873" width="120" height="20" as="geometry" />
        </mxCell>
        <mxCell id="WG-GIoE7qXhuWjVk6lCx-98" style="edgeStyle=orthogonalEdgeStyle;rounded=0;orthogonalLoop=1;jettySize=auto;html=1;fontSize=12;" parent="WIyWlLk6GJQsqaUBKTNV-1" source="WG-GIoE7qXhuWjVk6lCx-93" edge="1">
          <mxGeometry relative="1" as="geometry">
            <mxPoint x="669.98" y="953" as="targetPoint" />
          </mxGeometry>
        </mxCell>
        <mxCell id="WG-GIoE7qXhuWjVk6lCx-93" value="temp.push_back(s[i])" style="rounded=0;whiteSpace=wrap;html=1;fontSize=12;" parent="WIyWlLk6GJQsqaUBKTNV-1" vertex="1">
          <mxGeometry x="664.9200000000001" y="873" width="120" height="20" as="geometry" />
        </mxCell>
        <mxCell id="WG-GIoE7qXhuWjVk6lCx-97" style="edgeStyle=orthogonalEdgeStyle;rounded=0;orthogonalLoop=1;jettySize=auto;html=1;fontSize=12;" parent="WIyWlLk6GJQsqaUBKTNV-1" source="WG-GIoE7qXhuWjVk6lCx-95" edge="1">
          <mxGeometry relative="1" as="geometry">
            <mxPoint x="669.98" y="953" as="targetPoint" />
          </mxGeometry>
        </mxCell>
        <mxCell id="WG-GIoE7qXhuWjVk6lCx-95" value="temp = &quot;&quot;" style="rounded=0;whiteSpace=wrap;html=1;fontSize=12;" parent="WIyWlLk6GJQsqaUBKTNV-1" vertex="1">
          <mxGeometry x="529.98" y="913" width="120" height="20" as="geometry" />
        </mxCell>
        <mxCell id="WG-GIoE7qXhuWjVk6lCx-100" style="edgeStyle=orthogonalEdgeStyle;rounded=0;orthogonalLoop=1;jettySize=auto;html=1;fontSize=12;entryX=0.5;entryY=0;entryDx=0;entryDy=0;" parent="WIyWlLk6GJQsqaUBKTNV-1" source="WG-GIoE7qXhuWjVk6lCx-99" target="WG-GIoE7qXhuWjVk6lCx-86" edge="1">
          <mxGeometry relative="1" as="geometry">
            <mxPoint x="609.98" y="713" as="targetPoint" />
            <Array as="points">
              <mxPoint x="509.98" y="963" />
              <mxPoint x="509.98" y="713" />
              <mxPoint x="664.98" y="713" />
            </Array>
          </mxGeometry>
        </mxCell>
        <mxCell id="WG-GIoE7qXhuWjVk6lCx-99" value="++i" style="rounded=0;whiteSpace=wrap;html=1;fontSize=12;" parent="WIyWlLk6GJQsqaUBKTNV-1" vertex="1">
          <mxGeometry x="639.9200000000001" y="953" width="50" height="20" as="geometry" />
        </mxCell>
        <mxCell id="WG-GIoE7qXhuWjVk6lCx-102" value="нет" style="text;html=1;align=center;verticalAlign=middle;resizable=0;points=[];autosize=1;strokeColor=none;fillColor=none;fontSize=12;" parent="WIyWlLk6GJQsqaUBKTNV-1" vertex="1">
          <mxGeometry x="714.9200000000001" y="833" width="40" height="20" as="geometry" />
        </mxCell>
        <mxCell id="WG-GIoE7qXhuWjVk6lCx-103" value="нет" style="text;html=1;align=center;verticalAlign=middle;resizable=0;points=[];autosize=1;strokeColor=none;fillColor=none;fontSize=12;" parent="WIyWlLk6GJQsqaUBKTNV-1" vertex="1">
          <mxGeometry x="726.9200000000001" y="736" width="40" height="20" as="geometry" />
        </mxCell>
        <mxCell id="WG-GIoE7qXhuWjVk6lCx-104" value="да" style="text;html=1;align=center;verticalAlign=middle;resizable=0;points=[];autosize=1;strokeColor=none;fillColor=none;fontSize=12;" parent="WIyWlLk6GJQsqaUBKTNV-1" vertex="1">
          <mxGeometry x="584.9200000000001" y="833" width="40" height="20" as="geometry" />
        </mxCell>
        <mxCell id="WG-GIoE7qXhuWjVk6lCx-105" value="да" style="text;html=1;align=center;verticalAlign=middle;resizable=0;points=[];autosize=1;strokeColor=none;fillColor=none;fontSize=12;" parent="WIyWlLk6GJQsqaUBKTNV-1" vertex="1">
          <mxGeometry x="624.9200000000001" y="793" width="40" height="20" as="geometry" />
        </mxCell>
        <mxCell id="WG-GIoE7qXhuWjVk6lCx-109" value="" style="edgeStyle=orthogonalEdgeStyle;rounded=0;orthogonalLoop=1;jettySize=auto;html=1;fontSize=12;" parent="WIyWlLk6GJQsqaUBKTNV-1" source="WG-GIoE7qXhuWjVk6lCx-107" target="WG-GIoE7qXhuWjVk6lCx-108" edge="1">
          <mxGeometry relative="1" as="geometry" />
        </mxCell>
        <mxCell id="WG-GIoE7qXhuWjVk6lCx-107" value="v.push_back(temp)" style="rounded=0;whiteSpace=wrap;html=1;fontSize=12;" parent="WIyWlLk6GJQsqaUBKTNV-1" vertex="1">
          <mxGeometry x="604.9200000000001" y="1013" width="120" height="20" as="geometry" />
        </mxCell>
        <mxCell id="WG-GIoE7qXhuWjVk6lCx-108" value="возврат в программу" style="rounded=1;whiteSpace=wrap;html=1;fontSize=12;" parent="WIyWlLk6GJQsqaUBKTNV-1" vertex="1">
          <mxGeometry x="614.92" y="1054" width="100" height="31" as="geometry" />
        </mxCell>
        <mxCell id="WG-GIoE7qXhuWjVk6lCx-110" value="string splitting function &amp;gt;&amp;gt;" style="text;html=1;align=center;verticalAlign=middle;resizable=0;points=[];autosize=1;strokeColor=none;fillColor=none;fontSize=12;" parent="WIyWlLk6GJQsqaUBKTNV-1" vertex="1">
          <mxGeometry x="439.94" y="613" width="160" height="20" as="geometry" />
        </mxCell>
        <mxCell id="FEtjmoIFKl3TCbHmoyMD-0" value="&lt;span&gt;fsort(strings)&lt;/span&gt;" style="shape=process;whiteSpace=wrap;html=1;backgroundOutline=1;" vertex="1" parent="WIyWlLk6GJQsqaUBKTNV-1">
          <mxGeometry x="160" y="240" width="120" height="40" as="geometry" />
        </mxCell>
        <mxCell id="FEtjmoIFKl3TCbHmoyMD-1" value="&lt;span&gt;splitstring(in, strings)&lt;/span&gt;" style="shape=process;whiteSpace=wrap;html=1;backgroundOutline=1;" vertex="1" parent="WIyWlLk6GJQsqaUBKTNV-1">
          <mxGeometry x="160.01" y="180" width="120" height="40" as="geometry" />
        </mxCell>
        <mxCell id="FEtjmoIFKl3TCbHmoyMD-2" value="1" style="text;html=1;align=center;verticalAlign=middle;resizable=0;points=[];autosize=1;strokeColor=none;fillColor=none;" vertex="1" parent="WIyWlLk6GJQsqaUBKTNV-1">
          <mxGeometry x="292.5" y="40" width="40" height="20" as="geometry" />
        </mxCell>
        <mxCell id="FEtjmoIFKl3TCbHmoyMD-3" value="2" style="text;html=1;align=center;verticalAlign=middle;resizable=0;points=[];autosize=1;strokeColor=none;fillColor=none;" vertex="1" parent="WIyWlLk6GJQsqaUBKTNV-1">
          <mxGeometry x="292.5" y="80" width="40" height="20" as="geometry" />
        </mxCell>
        <mxCell id="FEtjmoIFKl3TCbHmoyMD-4" value="3" style="text;html=1;align=center;verticalAlign=middle;resizable=0;points=[];autosize=1;strokeColor=none;fillColor=none;" vertex="1" parent="WIyWlLk6GJQsqaUBKTNV-1">
          <mxGeometry x="292.5" y="140" width="40" height="20" as="geometry" />
        </mxCell>
        <mxCell id="FEtjmoIFKl3TCbHmoyMD-5" value="4" style="text;html=1;align=center;verticalAlign=middle;resizable=0;points=[];autosize=1;strokeColor=none;fillColor=none;" vertex="1" parent="WIyWlLk6GJQsqaUBKTNV-1">
          <mxGeometry x="292.5" y="190" width="40" height="20" as="geometry" />
        </mxCell>
        <mxCell id="FEtjmoIFKl3TCbHmoyMD-6" value="5" style="text;html=1;align=center;verticalAlign=middle;resizable=0;points=[];autosize=1;strokeColor=none;fillColor=none;" vertex="1" parent="WIyWlLk6GJQsqaUBKTNV-1">
          <mxGeometry x="297.5" y="247" width="40" height="20" as="geometry" />
        </mxCell>
        <mxCell id="FEtjmoIFKl3TCbHmoyMD-7" value="6" style="text;html=1;align=center;verticalAlign=middle;resizable=0;points=[];autosize=1;strokeColor=none;fillColor=none;" vertex="1" parent="WIyWlLk6GJQsqaUBKTNV-1">
          <mxGeometry x="300" y="300" width="40" height="20" as="geometry" />
        </mxCell>
        <mxCell id="FEtjmoIFKl3TCbHmoyMD-8" value="7" style="text;html=1;align=center;verticalAlign=middle;resizable=0;points=[];autosize=1;strokeColor=none;fillColor=none;" vertex="1" parent="WIyWlLk6GJQsqaUBKTNV-1">
          <mxGeometry x="300" y="360" width="40" height="20" as="geometry" />
        </mxCell>
        <mxCell id="FEtjmoIFKl3TCbHmoyMD-9" value="8" style="text;html=1;align=center;verticalAlign=middle;resizable=0;points=[];autosize=1;strokeColor=none;fillColor=none;" vertex="1" parent="WIyWlLk6GJQsqaUBKTNV-1">
          <mxGeometry x="300" y="420" width="40" height="20" as="geometry" />
        </mxCell>
        <mxCell id="FEtjmoIFKl3TCbHmoyMD-10" value="9" style="text;html=1;align=center;verticalAlign=middle;resizable=0;points=[];autosize=1;strokeColor=none;fillColor=none;" vertex="1" parent="WIyWlLk6GJQsqaUBKTNV-1">
          <mxGeometry x="360" y="500" width="40" height="20" as="geometry" />
        </mxCell>
        <mxCell id="FEtjmoIFKl3TCbHmoyMD-11" value="10" style="text;html=1;align=center;verticalAlign=middle;resizable=0;points=[];autosize=1;strokeColor=none;fillColor=none;" vertex="1" parent="WIyWlLk6GJQsqaUBKTNV-1">
          <mxGeometry x="360" y="540" width="40" height="20" as="geometry" />
        </mxCell>
        <mxCell id="FEtjmoIFKl3TCbHmoyMD-12" value="11" style="text;html=1;align=center;verticalAlign=middle;resizable=0;points=[];autosize=1;strokeColor=none;fillColor=none;" vertex="1" parent="WIyWlLk6GJQsqaUBKTNV-1">
          <mxGeometry x="360" y="600" width="40" height="20" as="geometry" />
        </mxCell>
        <mxCell id="FEtjmoIFKl3TCbHmoyMD-13" value="12" style="text;html=1;align=center;verticalAlign=middle;resizable=0;points=[];autosize=1;strokeColor=none;fillColor=none;" vertex="1" parent="WIyWlLk6GJQsqaUBKTNV-1">
          <mxGeometry x="360" y="620" width="40" height="20" as="geometry" />
        </mxCell>
        <mxCell id="FEtjmoIFKl3TCbHmoyMD-14" value="13" style="text;html=1;align=center;verticalAlign=middle;resizable=0;points=[];autosize=1;strokeColor=none;fillColor=none;" vertex="1" parent="WIyWlLk6GJQsqaUBKTNV-1">
          <mxGeometry x="340" y="680" width="40" height="20" as="geometry" />
        </mxCell>
      </root>
    </mxGraphModel>
  </diagram>
</mxfile>
